<?xml version="1.0" encoding="UTF-8" standalone="no"?>
<!-- Created with Inkscape (http://www.inkscape.org/) -->

<svg
   width="564.00006"
   height="131.14252"
   viewBox="0 0 149.22501 34.698124"
   version="1.1"
   id="svg1"
   xml:space="preserve"
   inkscape:version="1.3 (0e150ed6c4, 2023-07-21)"
   sodipodi:docname="harmony logo file.svg"
   inkscape:export-filename="wall (accent).png"
   inkscape:export-xdpi="1000"
   inkscape:export-ydpi="1000"
   xmlns:inkscape="http://www.inkscape.org/namespaces/inkscape"
   xmlns:sodipodi="http://sodipodi.sourceforge.net/DTD/sodipodi-0.dtd"
   xmlns:xlink="http://www.w3.org/1999/xlink"
   xmlns="http://www.w3.org/2000/svg"
   xmlns:svg="http://www.w3.org/2000/svg"><sodipodi:namedview
     id="namedview1"
     pagecolor="#505050"
     bordercolor="#ffffff"
     borderopacity="1"
     inkscape:showpageshadow="0"
     inkscape:pageopacity="0"
     inkscape:pagecheckerboard="1"
     inkscape:deskcolor="#505050"
     inkscape:document-units="px"
     inkscape:zoom="1.4142136"
     inkscape:cx="440.88107"
     inkscape:cy="-744.22987"
     inkscape:window-width="2560"
     inkscape:window-height="1377"
     inkscape:window-x="-8"
     inkscape:window-y="-8"
     inkscape:window-maximized="1"
     inkscape:current-layer="g136" /><defs
     id="defs1"><linearGradient
       id="linearGradient19"
       inkscape:collect="always"><stop
         style="stop-color:#ffeeaa;stop-opacity:1;"
         offset="0"
         id="stop19" /><stop
         style="stop-color:#ffdd51;stop-opacity:1;"
         offset="0.23901033"
         id="stop22" /><stop
         style="stop-color:#907000;stop-opacity:1;"
         offset="0.65655476"
         id="stop23" /><stop
         style="stop-color:#ffeeaa;stop-opacity:1;"
         offset="1"
         id="stop20" /></linearGradient><linearGradient
       inkscape:collect="always"
       xlink:href="#linearGradient19"
       id="linearGradient24"
       gradientUnits="userSpaceOnUse"
       x1="99.480202"
       y1="71.070038"
       x2="153.09398"
       y2="123.02087"
       gradientTransform="matrix(2.203125,0,0,2.203125,77.430576,-104.00836)" /></defs><g
     inkscape:label="Layer 1"
     inkscape:groupmode="layer"
     id="layer1"
     transform="translate(-296.59787,-107.00511)"><path
       id="text9-8-3"
       style="-inkscape-font-specification:'Tw Cen MT';fill:url(#linearGradient24);fill-opacity:1;stroke:none;stroke-width:2.64582;paint-order:markers stroke fill"
       d="m 361.67661,107.00511 -4.56992,17.42586 h 2.2326 l 2.79729,-10.72807 4.78054,11.37132 4.76688,-11.29278 2.76997,10.64953 h 2.23258 l -4.56992,-17.42586 -5.19951,12.47568 z m 48.55119,0.0262 v 17.39966 h 2.28495 v -11.88363 l 12.3709,12.65896 v -17.50555 h -2.28495 v 12.05557 z m -85.93941,0.0262 -7.82715,17.37349 h 2.37717 l 1.90357,-4.28076 h 7.10536 l 1.95594,4.28076 h 2.39083 z m 68.65019,0.10487 c -5.1699,0 -9.29694,3.93634 -9.29694,8.79943 0,5.04401 4.05725,9.03398 9.2184,9.03398 5.26712,0 9.23206,-3.97662 9.23206,-9.03398 0,-4.81165 -4.11629,-8.79943 -9.15352,-8.79943 z m -96.34069,0.53848 v 16.73025 h 2.28497 v -8.03665 h 7.99794 v 8.03665 h 2.25877 v -16.73025 h -2.25877 v 6.4348 h -7.99794 v -6.4348 z m 43.338,0 v 16.73025 h 2.28497 v -6.88109 h 0.51231 l 4.64849,6.88109 h 2.61398 l -4.87276,-7.15659 c 1.63507,-0.36744 4.54375,-1.48486 4.54375,-4.78058 0,-2.75159 -2.42029,-4.79308 -6.10576,-4.79308 z m 92.65083,0 5.46252,9.08752 v 7.64273 h 2.28495 v -7.6691 l 5.48869,-9.06132 h -2.53428 l -4.0576,6.72396 -4.10998,-6.72396 z m -39.83142,1.79998 c 3.90209,0 6.90724,2.83961 6.90724,6.56571 0,3.55994 -2.96393,6.53953 -6.63174,6.53953 -3.97783,0 -6.99946,-2.8528 -6.99946,-6.53953 0,-3.65353 3.00145,-6.56571 6.72396,-6.56571 z m -50.53444,0.22315 c 2.14959,0.0304 4.9719,0.20159 5.05606,2.90203 0,2.02233 -1.6855,2.99827 -5.05606,2.92821 z m -17.93247,2.57299 2.6914,5.9498 h -5.38393 z m 40.10355,19.42277 c -3.95307,10.32169 -1.58402,3.9846 -3.84357,9.98348 h 0.77418 c 0.39378,-1.06677 0.79209,-2.13313 1.16583,-3.20715 h 4.90917 l 1.22047,3.20715 h 0.87438 l -4.07127,-9.98348 z m -33.02438,0.009 v 9.97437 h 0.72864 v -4.96499 h 6.14789 v 4.96499 h 0.73773 v -9.97437 h -0.73773 v 4.28074 h -6.14789 v -4.28074 z m 15.5143,0 v 9.97437 h 7.20441 v -0.72979 h -6.47577 v -4.09744 h 5.83821 v -0.72864 h -5.83821 v -3.68988 h 6.22984 v -0.72862 z m 29.48136,0 v 9.97437 h 5.87465 v -0.72979 h -5.14601 v -9.24458 z m 12.32765,0 v 0.72862 h 3.45192 v 9.24575 h 0.72864 v -9.24575 h 3.48834 v -0.72862 z m 14.74921,0 v 9.97437 h 0.72864 v -4.96499 h 6.14787 v 4.96499 h 0.73776 v -9.97437 h -0.73776 v 4.28074 h -6.14787 v -4.28074 z m -38.56543,0.64667 2.31343,5.54674 h -4.50845 z m -40.9574,4.04506 -19.52748,0.29033 19.52748,0.29031 z m 94.58741,0 v 0.58064 l 19.52751,-0.29031 z" /></g></svg>
