<?xml version="1.0" encoding="UTF-8" standalone="no"?>
<!-- Created with Inkscape (http://www.inkscape.org/) -->

<svg
   width="256"
   height="256"
   viewBox="0 0 67.733332 67.733333"
   version="1.1"
   id="svg1"
   inkscape:version="1.3 (0e150ed6c4, 2023-07-21)"
   sodipodi:docname="favicon.svg"
   xmlns:inkscape="http://www.inkscape.org/namespaces/inkscape"
   xmlns:sodipodi="http://sodipodi.sourceforge.net/DTD/sodipodi-0.dtd"
   xmlns:xlink="http://www.w3.org/1999/xlink"
   xmlns="http://www.w3.org/2000/svg"
   xmlns:svg="http://www.w3.org/2000/svg">
  <sodipodi:namedview
     id="namedview1"
     pagecolor="#505050"
     bordercolor="#ffffff"
     borderopacity="1"
     inkscape:showpageshadow="0"
     inkscape:pageopacity="0"
     inkscape:pagecheckerboard="1"
     inkscape:deskcolor="#505050"
     inkscape:document-units="px"
     inkscape:zoom="3.2623036"
     inkscape:cx="166.60007"
     inkscape:cy="239.55465"
     inkscape:window-width="3840"
     inkscape:window-height="2066"
     inkscape:window-x="-11"
     inkscape:window-y="-11"
     inkscape:window-maximized="1"
     inkscape:current-layer="layer1" />
  <defs
     id="defs1">
    <radialGradient
       inkscape:collect="always"
       xlink:href="#linearGradient4"
       id="radialGradient9-5"
       cx="134.40584"
       cy="11.399861"
       fx="134.40584"
       fy="11.399861"
       r="18.868208"
       gradientTransform="matrix(-1.4174247,2.2945448,-2.6089669,-1.6118003,362.32306,-276.84225)"
       gradientUnits="userSpaceOnUse" />
    <linearGradient
       id="linearGradient4"
       inkscape:collect="always">
      <stop
         style="stop-color:#ffeeaa;stop-opacity:1;"
         offset="0"
         id="stop7" />
      <stop
         style="stop-color:#ffdd51;stop-opacity:1;"
         offset="0.24665178"
         id="stop5" />
      <stop
         style="stop-color:#907000;stop-opacity:1;"
         offset="0.60863256"
         id="stop9" />
      <stop
         style="stop-color:#ffeeaa;stop-opacity:1;"
         offset="0.80962616"
         id="stop8" />
    </linearGradient>
    <radialGradient
       inkscape:collect="always"
       xlink:href="#linearGradient4"
       id="radialGradient5-1"
       gradientUnits="userSpaceOnUse"
       gradientTransform="matrix(-1.4174247,2.2945448,-2.6089669,-1.6118003,362.32306,-276.84225)"
       cx="134.40584"
       cy="11.399861"
       fx="134.40584"
       fy="11.399861"
       r="18.868208" />
  </defs>
  <g
     inkscape:label="Layer 1"
     inkscape:groupmode="layer"
     id="layer1">
    <circle
       style="fill:#222222;stroke:none;stroke-width:0.330729;stroke-opacity:0.998192;paint-order:markers fill stroke;fill-opacity:1"
       id="path1"
       cx="33.866665"
       cy="33.866665"
       r="33.701302" />
    <g
       id="g3-9-1"
       style="fill:url(#radialGradient9-5);fill-opacity:1;stroke-width:0.660317"
       transform="matrix(1.5144523,0,0,1.5143837,-199.82226,-14.673458)"
       inkscape:export-filename="harmony logo (with text lft).png"
       inkscape:export-xdpi="96"
       inkscape:export-ydpi="96">
      <path
         id="path3-8"
         d="m 154.30676,13.183663 c -9.70071,0 -18.85052,8.06485 -18.86904,18.788871 -0.0173,10.387373 8.36578,18.940908 18.80052,18.949248 9.35641,0.0075 18.37199,-7.230047 18.91338,-17.898303 0.14624,-2.879149 -0.24565,-9.869089 -6.5845,-15.299735 5.68627,17.416373 -16.24652,16.146683 -18.76108,30.004031 -6.09394,-2.52223 -10.48302,-8.546891 -10.46236,-15.74977 0.0253,-9.673457 8.20877,-16.887957 16.96337,-16.887957 3.85028,0 6.83168,1.275609 8.71187,2.401336 0.16713,-0.645513 0.18931,-1.350506 0.0475,-2.145655 -1.27242,-0.66944 -4.4195,-2.162066 -8.75937,-2.162066 z m 9.72503,0.201264 c -0.12381,2.845194 1.68332,8.888272 -7.9803,14.591139 -9.79644,5.781263 -7.78656,13.296835 -7.41166,14.820332 0.78356,-1.651579 1.77785,-2.696464 1.77785,-2.696464 0.43679,-4.534011 5.64666,-7.453932 9.20649,-9.510039 9.39918,-5.428815 7.07111,-11.650654 4.40762,-17.204968 z m -10.07512,3.338836 c -1.02289,2.034735 -2.69838,7.644268 -1.78332,9.879165 0.5543,1.353775 4.37507,-0.280207 4.55444,-2.185388 0.19441,-2.064709 -1.5994,-5.704978 -2.77112,-7.693777 z m 16.04695,8.88667 c 1.10962,2.694606 1.34899,5.243702 1.24579,7.316877 -0.47655,9.444219 -8.38275,16.094599 -16.98871,16.088664 -1.62898,-0.0011 -3.10225,-0.223052 -4.58612,-0.642373 4.13969,-11.724092 22.83248,-8.739936 20.32904,-22.763168 z"
         sodipodi:nodetypes="sccccccsccsscsccsccsscccccc"
         style="fill:url(#radialGradient5-1);fill-opacity:1;stroke-width:0.660317"
         inkscape:export-filename="harmony logo.png"
         inkscape:export-xdpi="96"
         inkscape:export-ydpi="96" />
    </g>
  </g>
</svg>
