<?xml version="1.0" encoding="UTF-8" standalone="no"?>
<!-- Created with Inkscape (http://www.inkscape.org/) -->

<svg
   width="529.16663mm"
   height="141.19594mm"
   viewBox="0 0 529.16662 141.19594"
   version="1.1"
   id="svg1"
   inkscape:version="1.3 (0e150ed6c4, 2023-07-21)"
   sodipodi:docname="harmony logo (full).svg"
   xmlns:inkscape="http://www.inkscape.org/namespaces/inkscape"
   xmlns:sodipodi="http://sodipodi.sourceforge.net/DTD/sodipodi-0.dtd"
   xmlns="http://www.w3.org/2000/svg"
   xmlns:svg="http://www.w3.org/2000/svg">
  <sodipodi:namedview
     id="namedview1"
     pagecolor="#505050"
     bordercolor="#ffffff"
     borderopacity="1"
     inkscape:showpageshadow="0"
     inkscape:pageopacity="0"
     inkscape:pagecheckerboard="1"
     inkscape:deskcolor="#505050"
     inkscape:document-units="mm"
     inkscape:zoom="0.26302434"
     inkscape:cx="1729.8779"
     inkscape:cy="914.36404"
     inkscape:window-width="3440"
     inkscape:window-height="1377"
     inkscape:window-x="2552"
     inkscape:window-y="-8"
     inkscape:window-maximized="1"
     inkscape:current-layer="layer1" />
  <defs
     id="defs1" />
  <g
     inkscape:label="Layer 1"
     inkscape:groupmode="layer"
     id="layer1"
     transform="translate(24.077068,-82.549998)">
    <g
       id="g1"
       transform="matrix(1.514624,0,0,1.514624,12.390639,-42.482214)"
       style="stroke-width:0.66023">
      <g
         id="g3-9-1-3"
         style="fill:#c8a838;fill-opacity:1;stroke-width:0.267268"
         transform="matrix(2.4703397,0,0,2.4702281,-358.65418,49.983346)"
         inkscape:export-filename="harmony logo (with text lft gold).png"
         inkscape:export-xdpi="300"
         inkscape:export-ydpi="300">
        <path
           id="path3-8-9"
           d="m 154.30676,13.183663 c -9.70071,0 -18.85052,8.06485 -18.86904,18.788871 -0.0173,10.387373 8.36578,18.940908 18.80052,18.949248 9.35641,0.0075 18.37199,-7.230047 18.91338,-17.898303 0.14624,-2.879149 -0.24565,-9.869089 -6.5845,-15.299735 5.68627,17.416373 -16.24652,16.146683 -18.76108,30.004031 -6.09394,-2.52223 -10.48302,-8.546891 -10.46236,-15.74977 0.0253,-9.673457 8.20877,-16.887957 16.96337,-16.887957 3.85028,0 6.83168,1.275609 8.71187,2.401336 0.16713,-0.645513 0.18931,-1.350506 0.0475,-2.145655 -1.27242,-0.66944 -4.4195,-2.162066 -8.75937,-2.162066 z m 9.72503,0.201264 c -0.12381,2.845194 1.68332,8.888272 -7.9803,14.591139 -9.79644,5.781263 -7.78656,13.296835 -7.41166,14.820332 0.78356,-1.651579 1.77785,-2.696464 1.77785,-2.696464 0.43679,-4.534011 5.64666,-7.453932 9.20649,-9.510039 9.39918,-5.428815 7.07111,-11.650654 4.40762,-17.204968 z m -10.07512,3.338836 c -1.02289,2.034735 -2.69838,7.644268 -1.78332,9.879165 0.5543,1.353775 4.37507,-0.280207 4.55444,-2.185388 0.19441,-2.064709 -1.5994,-5.704978 -2.77112,-7.693777 z m 16.04695,8.88667 c 1.10962,2.694606 1.34899,5.243702 1.24579,7.316877 -0.47655,9.444219 -8.38275,16.094599 -16.98871,16.088664 -1.62898,-0.0011 -3.10225,-0.223052 -4.58612,-0.642373 4.13969,-11.724092 22.83248,-8.739936 20.32904,-22.763168 z"
           sodipodi:nodetypes="sccccccsccsscsccsccsscccccc"
           style="fill:#c8a838;fill-opacity:1;stroke-width:0.267268"
           inkscape:export-filename="harmony logo.png"
           inkscape:export-xdpi="96"
           inkscape:export-ydpi="96" />
      </g>
      <path
         id="text9-8-3-7"
         style="-inkscape-font-specification:'Tw Cen MT';fill:#c8a838;fill-opacity:1;stroke:none;stroke-width:1.74685;paint-order:markers stroke fill"
         d="m 191.74675,101.62635 -7.25288,27.65643 h 3.54334 l 4.43955,-17.02643 7.58716,18.04732 7.56547,-17.92267 4.3962,16.90178 h 3.5433 l -7.25288,-27.65643 -8.25209,19.80004 z m 77.05517,0.0416 v 27.61485 h 3.62642 v -18.86041 l 19.63375,20.09093 v -27.78291 h -3.62642 v 19.13329 z m -136.39369,0.0416 -12.4224,27.57331 h 3.77278 l 3.02114,-6.79395 h 11.27686 l 3.10425,6.79395 h 3.79447 z m 108.95412,0.16644 c -8.2051,0 -14.75509,6.24733 -14.75509,13.9655 0,8.0053 6.43922,14.33775 14.63044,14.33775 8.3594,0 14.65212,-6.31126 14.65212,-14.33775 0,-7.63653 -6.53293,-13.9655 -14.52747,-13.9655 z M 88.460879,102.73056 V 129.283 h 3.626456 V 116.5281 H 104.7808 v 12.7549 h 3.58487 v -26.55244 h -3.58487 v 10.21262 H 92.087335 v -10.21262 z m 68.781361,0 V 129.283 h 3.62646 v -10.92092 h 0.81308 l 7.37758,10.92092 h 4.14862 l -7.73351,-11.35816 c 2.595,-0.58316 7.21134,-2.35661 7.21134,-7.58722 0,-4.36702 -3.84122,-7.60706 -9.69039,-7.60706 z m 147.04533,0 8.66952,14.42273 V 129.283 h 3.62642 v -12.17156 l 8.71105,-14.38115 h -4.02213 l -6.43978,10.67154 -6.52292,-10.67154 z m -63.2161,2.85674 c 6.19297,0 10.96242,4.50672 10.96242,10.42038 0,5.64995 -4.70403,10.37883 -10.52518,10.37883 -6.31318,0 -11.10878,-4.52766 -11.10878,-10.37883 0,-5.79849 4.76357,-10.42038 10.67154,-10.42038 z m -80.20277,0.35416 c 3.41159,0.0482 7.89086,0.31994 8.02443,4.60578 0,3.20962 -2.67505,4.75853 -8.02443,4.64734 z m -28.46047,4.08357 4.2715,9.44287 h -8.54479 z m 63.648,30.82571 c -6.27389,16.38146 -2.51399,6.32392 -6.1001,15.84469 h 1.22869 c 0.62497,-1.69306 1.25712,-3.38547 1.85028,-5.09004 h 7.7913 l 1.937,5.09004 h 1.38772 l -6.46148,-15.84469 z m -52.41271,0.0143 v 15.83024 h 1.15642 v -7.8799 h 9.75726 v 7.8799 h 1.17085 v -15.83024 h -1.17085 v 6.79392 h -9.75726 v -6.79392 z m 24.62261,0 v 15.83024 h 11.43406 v -1.15825 H 169.42255 V 149.034 h 9.26577 v -1.15642 h -9.26577 v -5.85617 h 9.88732 v -1.15639 z m 46.78961,0 v 15.83024 h 9.32361 v -1.15825 h -8.16719 v -14.67199 z m 19.56511,0 v 1.15639 h 5.47851 v 14.67385 h 1.15642 v -14.67385 h 5.53631 v -1.15639 z m 23.40834,0 v 15.83024 h 1.15642 v -7.8799 h 9.75723 v 7.8799 h 1.17089 v -15.83024 h -1.17089 v 6.79392 h -9.75723 v -6.79392 z m -61.20686,1.02632 3.67163,8.80319 h -7.15533 z m -65.00313,6.41988 -30.9919,0.46078 30.9919,0.46075 z m 150.11885,0 v 0.92153 l 30.99194,-0.46075 z" />
    </g>
  </g>
</svg>
